<?xml version="1.0" encoding="utf-8" standalone="no"?>
<!DOCTYPE svg PUBLIC "-//W3C//DTD SVG 1.1//EN"
  "http://www.w3.org/Graphics/SVG/1.1/DTD/svg11.dtd">
<!-- Created with matplotlib (http://matplotlib.org/) -->
<svg height="288pt" version="1.1" viewBox="0 0 432 288" width="432pt" xmlns="http://www.w3.org/2000/svg" xmlns:xlink="http://www.w3.org/1999/xlink">
 <defs>
  <style type="text/css">
*{stroke-linecap:butt;stroke-linejoin:round;stroke-miterlimit:100000;}
  </style>
 </defs>
 <g id="figure_1">
  <g id="patch_1">
   <path d="M 0 288 
L 432 288 
L 432 0 
L 0 0 
z
" style="fill:#ffffff;"/>
  </g>
  <g id="axes_1">
   <g id="patch_2">
    <path d="M 54 168.75 
L 388.8 168.75 
L 388.8 112.05 
L 54 112.05 
z
" style="fill:#ffffff;"/>
   </g>
   <g id="patch_3">
    <path clip-path="url(#p1b516c751c)" d="M 59.4 157.95 
L 62.1 157.95 
L 62.1 155.25 
L 59.4 155.25 
z
"/>
   </g>
   <g id="patch_4">
    <path clip-path="url(#p1b516c751c)" d="M 59.4 155.25 
L 62.1 155.25 
L 62.1 152.55 
L 59.4 152.55 
z
"/>
   </g>
   <g id="patch_5">
    <path clip-path="url(#p1b516c751c)" d="M 59.4 147.15 
L 62.1 147.15 
L 62.1 144.45 
L 59.4 144.45 
z
"/>
   </g>
   <g id="patch_6">
    <path clip-path="url(#p1b516c751c)" d="M 59.4 141.75 
L 62.1 141.75 
L 62.1 139.05 
L 59.4 139.05 
z
"/>
   </g>
   <g id="patch_7">
    <path clip-path="url(#p1b516c751c)" d="M 59.4 136.35 
L 62.1 136.35 
L 62.1 133.65 
L 59.4 133.65 
z
"/>
   </g>
   <g id="patch_8">
    <path clip-path="url(#p1b516c751c)" d="M 59.4 125.55 
L 62.1 125.55 
L 62.1 122.85 
L 59.4 122.85 
z
"/>
   </g>
   <g id="patch_9">
    <path clip-path="url(#p1b516c751c)" d="M 62.1 157.95 
L 64.8 157.95 
L 64.8 155.25 
L 62.1 155.25 
z
"/>
   </g>
   <g id="patch_10">
    <path clip-path="url(#p1b516c751c)" d="M 62.1 152.55 
L 64.8 152.55 
L 64.8 149.85 
L 62.1 149.85 
z
"/>
   </g>
   <g id="patch_11">
    <path clip-path="url(#p1b516c751c)" d="M 62.1 147.15 
L 64.8 147.15 
L 64.8 144.45 
L 62.1 144.45 
z
"/>
   </g>
   <g id="patch_12">
    <path clip-path="url(#p1b516c751c)" d="M 62.1 141.75 
L 64.8 141.75 
L 64.8 139.05 
L 62.1 139.05 
z
"/>
   </g>
   <g id="patch_13">
    <path clip-path="url(#p1b516c751c)" d="M 62.1 136.35 
L 64.8 136.35 
L 64.8 133.65 
L 62.1 133.65 
z
"/>
   </g>
   <g id="patch_14">
    <path clip-path="url(#p1b516c751c)" d="M 62.1 133.65 
L 64.8 133.65 
L 64.8 130.95 
L 62.1 130.95 
z
"/>
   </g>
   <g id="patch_15">
    <path clip-path="url(#p1b516c751c)" d="M 62.1 130.95 
L 64.8 130.95 
L 64.8 128.25 
L 62.1 128.25 
z
"/>
   </g>
   <g id="patch_16">
    <path clip-path="url(#p1b516c751c)" d="M 62.1 128.25 
L 64.8 128.25 
L 64.8 125.55 
L 62.1 125.55 
z
"/>
   </g>
   <g id="patch_17">
    <path clip-path="url(#p1b516c751c)" d="M 62.1 125.55 
L 64.8 125.55 
L 64.8 122.85 
L 62.1 122.85 
z
"/>
   </g>
   <g id="patch_18">
    <path clip-path="url(#p1b516c751c)" d="M 64.8 157.95 
L 67.5 157.95 
L 67.5 155.25 
L 64.8 155.25 
z
"/>
   </g>
   <g id="patch_19">
    <path clip-path="url(#p1b516c751c)" d="M 64.8 149.85 
L 67.5 149.85 
L 67.5 147.15 
L 64.8 147.15 
z
"/>
   </g>
   <g id="patch_20">
    <path clip-path="url(#p1b516c751c)" d="M 64.8 141.75 
L 67.5 141.75 
L 67.5 139.05 
L 64.8 139.05 
z
"/>
   </g>
   <g id="patch_21">
    <path clip-path="url(#p1b516c751c)" d="M 64.8 136.35 
L 67.5 136.35 
L 67.5 133.65 
L 64.8 133.65 
z
"/>
   </g>
   <g id="patch_22">
    <path clip-path="url(#p1b516c751c)" d="M 70.2 141.75 
L 72.9 141.75 
L 72.9 139.05 
L 70.2 139.05 
z
"/>
   </g>
   <g id="patch_23">
    <path clip-path="url(#p1b516c751c)" d="M 72.9 144.45 
L 75.6 144.45 
L 75.6 141.75 
L 72.9 141.75 
z
"/>
   </g>
   <g id="patch_24">
    <path clip-path="url(#p1b516c751c)" d="M 72.9 139.05 
L 75.6 139.05 
L 75.6 136.35 
L 72.9 136.35 
z
"/>
   </g>
   <g id="patch_25">
    <path clip-path="url(#p1b516c751c)" d="M 75.6 147.15 
L 78.3 147.15 
L 78.3 144.45 
L 75.6 144.45 
z
"/>
   </g>
   <g id="patch_26">
    <path clip-path="url(#p1b516c751c)" d="M 75.6 136.35 
L 78.3 136.35 
L 78.3 133.65 
L 75.6 133.65 
z
"/>
   </g>
   <g id="patch_27">
    <path clip-path="url(#p1b516c751c)" d="M 81 163.35 
L 83.7 163.35 
L 83.7 160.65 
L 81 160.65 
z
"/>
   </g>
   <g id="patch_28">
    <path clip-path="url(#p1b516c751c)" d="M 81 160.65 
L 83.7 160.65 
L 83.7 157.95 
L 81 157.95 
z
"/>
   </g>
   <g id="patch_29">
    <path clip-path="url(#p1b516c751c)" d="M 81 157.95 
L 83.7 157.95 
L 83.7 155.25 
L 81 155.25 
z
"/>
   </g>
   <g id="patch_30">
    <path clip-path="url(#p1b516c751c)" d="M 81 155.25 
L 83.7 155.25 
L 83.7 152.55 
L 81 152.55 
z
"/>
   </g>
   <g id="patch_31">
    <path clip-path="url(#p1b516c751c)" d="M 81 152.55 
L 83.7 152.55 
L 83.7 149.85 
L 81 149.85 
z
"/>
   </g>
   <g id="patch_32">
    <path clip-path="url(#p1b516c751c)" d="M 81 149.85 
L 83.7 149.85 
L 83.7 147.15 
L 81 147.15 
z
"/>
   </g>
   <g id="patch_33">
    <path clip-path="url(#p1b516c751c)" d="M 81 147.15 
L 83.7 147.15 
L 83.7 144.45 
L 81 144.45 
z
"/>
   </g>
   <g id="patch_34">
    <path clip-path="url(#p1b516c751c)" d="M 81 144.45 
L 83.7 144.45 
L 83.7 141.75 
L 81 141.75 
z
"/>
   </g>
   <g id="patch_35">
    <path clip-path="url(#p1b516c751c)" d="M 81 141.75 
L 83.7 141.75 
L 83.7 139.05 
L 81 139.05 
z
"/>
   </g>
   <g id="patch_36">
    <path clip-path="url(#p1b516c751c)" d="M 81 139.05 
L 83.7 139.05 
L 83.7 136.35 
L 81 136.35 
z
"/>
   </g>
   <g id="patch_37">
    <path clip-path="url(#p1b516c751c)" d="M 81 136.35 
L 83.7 136.35 
L 83.7 133.65 
L 81 133.65 
z
"/>
   </g>
   <g id="patch_38">
    <path clip-path="url(#p1b516c751c)" d="M 81 133.65 
L 83.7 133.65 
L 83.7 130.95 
L 81 130.95 
z
"/>
   </g>
   <g id="patch_39">
    <path clip-path="url(#p1b516c751c)" d="M 81 130.95 
L 83.7 130.95 
L 83.7 128.25 
L 81 128.25 
z
"/>
   </g>
   <g id="patch_40">
    <path clip-path="url(#p1b516c751c)" d="M 81 128.25 
L 83.7 128.25 
L 83.7 125.55 
L 81 125.55 
z
"/>
   </g>
   <g id="patch_41">
    <path clip-path="url(#p1b516c751c)" d="M 81 125.55 
L 83.7 125.55 
L 83.7 122.85 
L 81 122.85 
z
"/>
   </g>
   <g id="patch_42">
    <path clip-path="url(#p1b516c751c)" d="M 81 122.85 
L 83.7 122.85 
L 83.7 120.15 
L 81 120.15 
z
"/>
   </g>
   <g id="patch_43">
    <path clip-path="url(#p1b516c751c)" d="M 81 120.15 
L 83.7 120.15 
L 83.7 117.45 
L 81 117.45 
z
"/>
   </g>
   <g id="patch_44">
    <path clip-path="url(#p1b516c751c)" d="M 83.7 163.35 
L 86.4 163.35 
L 86.4 160.65 
L 83.7 160.65 
z
"/>
   </g>
   <g id="patch_45">
    <path clip-path="url(#p1b516c751c)" d="M 86.4 163.35 
L 89.1 163.35 
L 89.1 160.65 
L 86.4 160.65 
z
"/>
   </g>
   <g id="patch_46">
    <path clip-path="url(#p1b516c751c)" d="M 86.4 147.15 
L 89.1 147.15 
L 89.1 144.45 
L 86.4 144.45 
z
"/>
   </g>
   <g id="patch_47">
    <path clip-path="url(#p1b516c751c)" d="M 86.4 144.45 
L 89.1 144.45 
L 89.1 141.75 
L 86.4 141.75 
z
"/>
   </g>
   <g id="patch_48">
    <path clip-path="url(#p1b516c751c)" d="M 86.4 141.75 
L 89.1 141.75 
L 89.1 139.05 
L 86.4 139.05 
z
"/>
   </g>
   <g id="patch_49">
    <path clip-path="url(#p1b516c751c)" d="M 86.4 139.05 
L 89.1 139.05 
L 89.1 136.35 
L 86.4 136.35 
z
"/>
   </g>
   <g id="patch_50">
    <path clip-path="url(#p1b516c751c)" d="M 89.1 139.05 
L 91.8 139.05 
L 91.8 136.35 
L 89.1 136.35 
z
"/>
   </g>
   <g id="patch_51">
    <path clip-path="url(#p1b516c751c)" d="M 91.8 147.15 
L 94.5 147.15 
L 94.5 144.45 
L 91.8 144.45 
z
"/>
   </g>
   <g id="patch_52">
    <path clip-path="url(#p1b516c751c)" d="M 91.8 144.45 
L 94.5 144.45 
L 94.5 141.75 
L 91.8 141.75 
z
"/>
   </g>
   <g id="patch_53">
    <path clip-path="url(#p1b516c751c)" d="M 91.8 141.75 
L 94.5 141.75 
L 94.5 139.05 
L 91.8 139.05 
z
"/>
   </g>
   <g id="patch_54">
    <path clip-path="url(#p1b516c751c)" d="M 94.5 139.05 
L 97.2 139.05 
L 97.2 136.35 
L 94.5 136.35 
z
"/>
   </g>
   <g id="patch_55">
    <path clip-path="url(#p1b516c751c)" d="M 97.2 147.15 
L 99.9 147.15 
L 99.9 144.45 
L 97.2 144.45 
z
"/>
   </g>
   <g id="patch_56">
    <path clip-path="url(#p1b516c751c)" d="M 97.2 144.45 
L 99.9 144.45 
L 99.9 141.75 
L 97.2 141.75 
z
"/>
   </g>
   <g id="patch_57">
    <path clip-path="url(#p1b516c751c)" d="M 97.2 141.75 
L 99.9 141.75 
L 99.9 139.05 
L 97.2 139.05 
z
"/>
   </g>
   <g id="patch_58">
    <path clip-path="url(#p1b516c751c)" d="M 102.6 144.45 
L 105.3 144.45 
L 105.3 141.75 
L 102.6 141.75 
z
"/>
   </g>
   <g id="patch_59">
    <path clip-path="url(#p1b516c751c)" d="M 102.6 141.75 
L 105.3 141.75 
L 105.3 139.05 
L 102.6 139.05 
z
"/>
   </g>
   <g id="patch_60">
    <path clip-path="url(#p1b516c751c)" d="M 105.3 147.15 
L 108 147.15 
L 108 144.45 
L 105.3 144.45 
z
"/>
   </g>
   <g id="patch_61">
    <path clip-path="url(#p1b516c751c)" d="M 105.3 139.05 
L 108 139.05 
L 108 136.35 
L 105.3 136.35 
z
"/>
   </g>
   <g id="patch_62">
    <path clip-path="url(#p1b516c751c)" d="M 108 147.15 
L 110.7 147.15 
L 110.7 144.45 
L 108 144.45 
z
"/>
   </g>
   <g id="patch_63">
    <path clip-path="url(#p1b516c751c)" d="M 108 139.05 
L 110.7 139.05 
L 110.7 136.35 
L 108 136.35 
z
"/>
   </g>
   <g id="patch_64">
    <path clip-path="url(#p1b516c751c)" d="M 110.7 144.45 
L 113.4 144.45 
L 113.4 141.75 
L 110.7 141.75 
z
"/>
   </g>
   <g id="patch_65">
    <path clip-path="url(#p1b516c751c)" d="M 110.7 141.75 
L 113.4 141.75 
L 113.4 139.05 
L 110.7 139.05 
z
"/>
   </g>
   <g id="patch_66">
    <path clip-path="url(#p1b516c751c)" d="M 116.1 144.45 
L 118.8 144.45 
L 118.8 141.75 
L 116.1 141.75 
z
"/>
   </g>
   <g id="patch_67">
    <path clip-path="url(#p1b516c751c)" d="M 116.1 141.75 
L 118.8 141.75 
L 118.8 139.05 
L 116.1 139.05 
z
"/>
   </g>
   <g id="patch_68">
    <path clip-path="url(#p1b516c751c)" d="M 118.8 147.15 
L 121.5 147.15 
L 121.5 144.45 
L 118.8 144.45 
z
"/>
   </g>
   <g id="patch_69">
    <path clip-path="url(#p1b516c751c)" d="M 118.8 139.05 
L 121.5 139.05 
L 121.5 136.35 
L 118.8 136.35 
z
"/>
   </g>
   <g id="patch_70">
    <path clip-path="url(#p1b516c751c)" d="M 121.5 147.15 
L 124.2 147.15 
L 124.2 144.45 
L 121.5 144.45 
z
"/>
   </g>
   <g id="patch_71">
    <path clip-path="url(#p1b516c751c)" d="M 121.5 139.05 
L 124.2 139.05 
L 124.2 136.35 
L 121.5 136.35 
z
"/>
   </g>
   <g id="patch_72">
    <path clip-path="url(#p1b516c751c)" d="M 124.2 147.15 
L 126.9 147.15 
L 126.9 144.45 
L 124.2 144.45 
z
"/>
   </g>
   <g id="patch_73">
    <path clip-path="url(#p1b516c751c)" d="M 124.2 144.45 
L 126.9 144.45 
L 126.9 141.75 
L 124.2 141.75 
z
"/>
   </g>
   <g id="patch_74">
    <path clip-path="url(#p1b516c751c)" d="M 124.2 141.75 
L 126.9 141.75 
L 126.9 139.05 
L 124.2 139.05 
z
"/>
   </g>
   <g id="patch_75">
    <path clip-path="url(#p1b516c751c)" d="M 124.2 139.05 
L 126.9 139.05 
L 126.9 136.35 
L 124.2 136.35 
z
"/>
   </g>
   <g id="patch_76">
    <path clip-path="url(#p1b516c751c)" d="M 124.2 136.35 
L 126.9 136.35 
L 126.9 133.65 
L 124.2 133.65 
z
"/>
   </g>
   <g id="patch_77">
    <path clip-path="url(#p1b516c751c)" d="M 124.2 133.65 
L 126.9 133.65 
L 126.9 130.95 
L 124.2 130.95 
z
"/>
   </g>
   <g id="patch_78">
    <path clip-path="url(#p1b516c751c)" d="M 129.6 149.85 
L 132.3 149.85 
L 132.3 147.15 
L 129.6 147.15 
z
"/>
   </g>
   <g id="patch_79">
    <path clip-path="url(#p1b516c751c)" d="M 129.6 147.15 
L 132.3 147.15 
L 132.3 144.45 
L 129.6 144.45 
z
"/>
   </g>
   <g id="patch_80">
    <path clip-path="url(#p1b516c751c)" d="M 129.6 144.45 
L 132.3 144.45 
L 132.3 141.75 
L 129.6 141.75 
z
"/>
   </g>
   <g id="patch_81">
    <path clip-path="url(#p1b516c751c)" d="M 129.6 141.75 
L 132.3 141.75 
L 132.3 139.05 
L 129.6 139.05 
z
"/>
   </g>
   <g id="patch_82">
    <path clip-path="url(#p1b516c751c)" d="M 129.6 139.05 
L 132.3 139.05 
L 132.3 136.35 
L 129.6 136.35 
z
"/>
   </g>
   <g id="patch_83">
    <path clip-path="url(#p1b516c751c)" d="M 129.6 136.35 
L 132.3 136.35 
L 132.3 133.65 
L 129.6 133.65 
z
"/>
   </g>
   <g id="patch_84">
    <path clip-path="url(#p1b516c751c)" d="M 129.6 133.65 
L 132.3 133.65 
L 132.3 130.95 
L 129.6 130.95 
z
"/>
   </g>
   <g id="patch_85">
    <path clip-path="url(#p1b516c751c)" d="M 132.3 157.95 
L 135 157.95 
L 135 155.25 
L 132.3 155.25 
z
"/>
   </g>
   <g id="patch_86">
    <path clip-path="url(#p1b516c751c)" d="M 132.3 155.25 
L 135 155.25 
L 135 152.55 
L 132.3 152.55 
z
"/>
   </g>
   <g id="patch_87">
    <path clip-path="url(#p1b516c751c)" d="M 132.3 152.55 
L 135 152.55 
L 135 149.85 
L 132.3 149.85 
z
"/>
   </g>
   <g id="patch_88">
    <path clip-path="url(#p1b516c751c)" d="M 132.3 130.95 
L 135 130.95 
L 135 128.25 
L 132.3 128.25 
z
"/>
   </g>
   <g id="patch_89">
    <path clip-path="url(#p1b516c751c)" d="M 132.3 128.25 
L 135 128.25 
L 135 125.55 
L 132.3 125.55 
z
"/>
   </g>
   <g id="patch_90">
    <path clip-path="url(#p1b516c751c)" d="M 132.3 125.55 
L 135 125.55 
L 135 122.85 
L 132.3 122.85 
z
"/>
   </g>
   <g id="patch_91">
    <path clip-path="url(#p1b516c751c)" d="M 135 163.35 
L 137.7 163.35 
L 137.7 160.65 
L 135 160.65 
z
"/>
   </g>
   <g id="patch_92">
    <path clip-path="url(#p1b516c751c)" d="M 135 160.65 
L 137.7 160.65 
L 137.7 157.95 
L 135 157.95 
z
"/>
   </g>
   <g id="patch_93">
    <path clip-path="url(#p1b516c751c)" d="M 135 122.85 
L 137.7 122.85 
L 137.7 120.15 
L 135 120.15 
z
"/>
   </g>
   <g id="patch_94">
    <path clip-path="url(#p1b516c751c)" d="M 135 120.15 
L 137.7 120.15 
L 137.7 117.45 
L 135 117.45 
z
"/>
   </g>
   <g id="patch_95">
    <path clip-path="url(#p1b516c751c)" d="M 140.4 163.35 
L 143.1 163.35 
L 143.1 160.65 
L 140.4 160.65 
z
"/>
   </g>
   <g id="patch_96">
    <path clip-path="url(#p1b516c751c)" d="M 140.4 160.65 
L 143.1 160.65 
L 143.1 157.95 
L 140.4 157.95 
z
"/>
   </g>
   <g id="patch_97">
    <path clip-path="url(#p1b516c751c)" d="M 140.4 157.95 
L 143.1 157.95 
L 143.1 155.25 
L 140.4 155.25 
z
"/>
   </g>
   <g id="patch_98">
    <path clip-path="url(#p1b516c751c)" d="M 140.4 155.25 
L 143.1 155.25 
L 143.1 152.55 
L 140.4 152.55 
z
"/>
   </g>
   <g id="patch_99">
    <path clip-path="url(#p1b516c751c)" d="M 140.4 152.55 
L 143.1 152.55 
L 143.1 149.85 
L 140.4 149.85 
z
"/>
   </g>
   <g id="patch_100">
    <path clip-path="url(#p1b516c751c)" d="M 140.4 149.85 
L 143.1 149.85 
L 143.1 147.15 
L 140.4 147.15 
z
"/>
   </g>
   <g id="patch_101">
    <path clip-path="url(#p1b516c751c)" d="M 140.4 147.15 
L 143.1 147.15 
L 143.1 144.45 
L 140.4 144.45 
z
"/>
   </g>
   <g id="patch_102">
    <path clip-path="url(#p1b516c751c)" d="M 140.4 144.45 
L 143.1 144.45 
L 143.1 141.75 
L 140.4 141.75 
z
"/>
   </g>
   <g id="patch_103">
    <path clip-path="url(#p1b516c751c)" d="M 140.4 141.75 
L 143.1 141.75 
L 143.1 139.05 
L 140.4 139.05 
z
"/>
   </g>
   <g id="patch_104">
    <path clip-path="url(#p1b516c751c)" d="M 140.4 139.05 
L 143.1 139.05 
L 143.1 136.35 
L 140.4 136.35 
z
"/>
   </g>
   <g id="patch_105">
    <path clip-path="url(#p1b516c751c)" d="M 140.4 136.35 
L 143.1 136.35 
L 143.1 133.65 
L 140.4 133.65 
z
"/>
   </g>
   <g id="patch_106">
    <path clip-path="url(#p1b516c751c)" d="M 140.4 133.65 
L 143.1 133.65 
L 143.1 130.95 
L 140.4 130.95 
z
"/>
   </g>
   <g id="patch_107">
    <path clip-path="url(#p1b516c751c)" d="M 140.4 130.95 
L 143.1 130.95 
L 143.1 128.25 
L 140.4 128.25 
z
"/>
   </g>
   <g id="patch_108">
    <path clip-path="url(#p1b516c751c)" d="M 140.4 128.25 
L 143.1 128.25 
L 143.1 125.55 
L 140.4 125.55 
z
"/>
   </g>
   <g id="patch_109">
    <path clip-path="url(#p1b516c751c)" d="M 140.4 125.55 
L 143.1 125.55 
L 143.1 122.85 
L 140.4 122.85 
z
"/>
   </g>
   <g id="patch_110">
    <path clip-path="url(#p1b516c751c)" d="M 140.4 122.85 
L 143.1 122.85 
L 143.1 120.15 
L 140.4 120.15 
z
"/>
   </g>
   <g id="patch_111">
    <path clip-path="url(#p1b516c751c)" d="M 143.1 163.35 
L 145.8 163.35 
L 145.8 160.65 
L 143.1 160.65 
z
"/>
   </g>
   <g id="patch_112">
    <path clip-path="url(#p1b516c751c)" d="M 145.8 163.35 
L 148.5 163.35 
L 148.5 160.65 
L 145.8 160.65 
z
"/>
   </g>
   <g id="patch_113">
    <path clip-path="url(#p1b516c751c)" d="M 145.8 157.95 
L 148.5 157.95 
L 148.5 155.25 
L 145.8 155.25 
z
"/>
   </g>
   <g id="patch_114">
    <path clip-path="url(#p1b516c751c)" d="M 145.8 155.25 
L 148.5 155.25 
L 148.5 152.55 
L 145.8 152.55 
z
"/>
   </g>
   <g id="patch_115">
    <path clip-path="url(#p1b516c751c)" d="M 145.8 152.55 
L 148.5 152.55 
L 148.5 149.85 
L 145.8 149.85 
z
"/>
   </g>
   <g id="patch_116">
    <path clip-path="url(#p1b516c751c)" d="M 145.8 149.85 
L 148.5 149.85 
L 148.5 147.15 
L 145.8 147.15 
z
"/>
   </g>
   <g id="patch_117">
    <path clip-path="url(#p1b516c751c)" d="M 145.8 147.15 
L 148.5 147.15 
L 148.5 144.45 
L 145.8 144.45 
z
"/>
   </g>
   <g id="patch_118">
    <path clip-path="url(#p1b516c751c)" d="M 145.8 141.75 
L 148.5 141.75 
L 148.5 139.05 
L 145.8 139.05 
z
"/>
   </g>
   <g id="patch_119">
    <path clip-path="url(#p1b516c751c)" d="M 148.5 141.75 
L 151.2 141.75 
L 151.2 139.05 
L 148.5 139.05 
z
"/>
   </g>
   <g id="patch_120">
    <path clip-path="url(#p1b516c751c)" d="M 148.5 136.35 
L 151.2 136.35 
L 151.2 133.65 
L 148.5 133.65 
z
"/>
   </g>
   <g id="patch_121">
    <path clip-path="url(#p1b516c751c)" d="M 148.5 130.95 
L 151.2 130.95 
L 151.2 128.25 
L 148.5 128.25 
z
"/>
   </g>
   <g id="patch_122">
    <path clip-path="url(#p1b516c751c)" d="M 148.5 128.25 
L 151.2 128.25 
L 151.2 125.55 
L 148.5 125.55 
z
"/>
   </g>
   <g id="patch_123">
    <path clip-path="url(#p1b516c751c)" d="M 151.2 157.95 
L 153.9 157.95 
L 153.9 155.25 
L 151.2 155.25 
z
"/>
   </g>
   <g id="patch_124">
    <path clip-path="url(#p1b516c751c)" d="M 151.2 155.25 
L 153.9 155.25 
L 153.9 152.55 
L 151.2 152.55 
z
"/>
   </g>
   <g id="patch_125">
    <path clip-path="url(#p1b516c751c)" d="M 151.2 147.15 
L 153.9 147.15 
L 153.9 144.45 
L 151.2 144.45 
z
"/>
   </g>
   <g id="patch_126">
    <path clip-path="url(#p1b516c751c)" d="M 151.2 141.75 
L 153.9 141.75 
L 153.9 139.05 
L 151.2 139.05 
z
"/>
   </g>
   <g id="patch_127">
    <path clip-path="url(#p1b516c751c)" d="M 151.2 133.65 
L 153.9 133.65 
L 153.9 130.95 
L 151.2 130.95 
z
"/>
   </g>
   <g id="patch_128">
    <path clip-path="url(#p1b516c751c)" d="M 153.9 163.35 
L 156.6 163.35 
L 156.6 160.65 
L 153.9 160.65 
z
"/>
   </g>
   <g id="patch_129">
    <path clip-path="url(#p1b516c751c)" d="M 153.9 152.55 
L 156.6 152.55 
L 156.6 149.85 
L 153.9 149.85 
z
"/>
   </g>
   <g id="patch_130">
    <path clip-path="url(#p1b516c751c)" d="M 153.9 149.85 
L 156.6 149.85 
L 156.6 147.15 
L 153.9 147.15 
z
"/>
   </g>
   <g id="patch_131">
    <path clip-path="url(#p1b516c751c)" d="M 153.9 147.15 
L 156.6 147.15 
L 156.6 144.45 
L 153.9 144.45 
z
"/>
   </g>
   <g id="patch_132">
    <path clip-path="url(#p1b516c751c)" d="M 153.9 141.75 
L 156.6 141.75 
L 156.6 139.05 
L 153.9 139.05 
z
"/>
   </g>
   <g id="patch_133">
    <path clip-path="url(#p1b516c751c)" d="M 153.9 130.95 
L 156.6 130.95 
L 156.6 128.25 
L 153.9 128.25 
z
"/>
   </g>
   <g id="patch_134">
    <path clip-path="url(#p1b516c751c)" d="M 153.9 128.25 
L 156.6 128.25 
L 156.6 125.55 
L 153.9 125.55 
z
"/>
   </g>
   <g id="patch_135">
    <path clip-path="url(#p1b516c751c)" d="M 156.6 163.35 
L 159.3 163.35 
L 159.3 160.65 
L 156.6 160.65 
z
"/>
   </g>
   <g id="patch_136">
    <path clip-path="url(#p1b516c751c)" d="M 159.3 163.35 
L 162 163.35 
L 162 160.65 
L 159.3 160.65 
z
"/>
   </g>
   <g id="patch_137">
    <path clip-path="url(#p1b516c751c)" d="M 159.3 160.65 
L 162 160.65 
L 162 157.95 
L 159.3 157.95 
z
"/>
   </g>
   <g id="patch_138">
    <path clip-path="url(#p1b516c751c)" d="M 159.3 157.95 
L 162 157.95 
L 162 155.25 
L 159.3 155.25 
z
"/>
   </g>
   <g id="patch_139">
    <path clip-path="url(#p1b516c751c)" d="M 159.3 155.25 
L 162 155.25 
L 162 152.55 
L 159.3 152.55 
z
"/>
   </g>
   <g id="patch_140">
    <path clip-path="url(#p1b516c751c)" d="M 159.3 152.55 
L 162 152.55 
L 162 149.85 
L 159.3 149.85 
z
"/>
   </g>
   <g id="patch_141">
    <path clip-path="url(#p1b516c751c)" d="M 159.3 149.85 
L 162 149.85 
L 162 147.15 
L 159.3 147.15 
z
"/>
   </g>
   <g id="patch_142">
    <path clip-path="url(#p1b516c751c)" d="M 159.3 147.15 
L 162 147.15 
L 162 144.45 
L 159.3 144.45 
z
"/>
   </g>
   <g id="patch_143">
    <path clip-path="url(#p1b516c751c)" d="M 159.3 144.45 
L 162 144.45 
L 162 141.75 
L 159.3 141.75 
z
"/>
   </g>
   <g id="patch_144">
    <path clip-path="url(#p1b516c751c)" d="M 159.3 141.75 
L 162 141.75 
L 162 139.05 
L 159.3 139.05 
z
"/>
   </g>
   <g id="patch_145">
    <path clip-path="url(#p1b516c751c)" d="M 159.3 139.05 
L 162 139.05 
L 162 136.35 
L 159.3 136.35 
z
"/>
   </g>
   <g id="patch_146">
    <path clip-path="url(#p1b516c751c)" d="M 159.3 136.35 
L 162 136.35 
L 162 133.65 
L 159.3 133.65 
z
"/>
   </g>
   <g id="patch_147">
    <path clip-path="url(#p1b516c751c)" d="M 159.3 133.65 
L 162 133.65 
L 162 130.95 
L 159.3 130.95 
z
"/>
   </g>
   <g id="patch_148">
    <path clip-path="url(#p1b516c751c)" d="M 159.3 130.95 
L 162 130.95 
L 162 128.25 
L 159.3 128.25 
z
"/>
   </g>
   <g id="patch_149">
    <path clip-path="url(#p1b516c751c)" d="M 159.3 128.25 
L 162 128.25 
L 162 125.55 
L 159.3 125.55 
z
"/>
   </g>
   <g id="patch_150">
    <path clip-path="url(#p1b516c751c)" d="M 159.3 125.55 
L 162 125.55 
L 162 122.85 
L 159.3 122.85 
z
"/>
   </g>
   <g id="patch_151">
    <path clip-path="url(#p1b516c751c)" d="M 159.3 122.85 
L 162 122.85 
L 162 120.15 
L 159.3 120.15 
z
"/>
   </g>
   <g id="patch_152">
    <path clip-path="url(#p1b516c751c)" d="M 164.7 147.15 
L 167.4 147.15 
L 167.4 144.45 
L 164.7 144.45 
z
"/>
   </g>
   <g id="patch_153">
    <path clip-path="url(#p1b516c751c)" d="M 164.7 144.45 
L 167.4 144.45 
L 167.4 141.75 
L 164.7 141.75 
z
"/>
   </g>
   <g id="patch_154">
    <path clip-path="url(#p1b516c751c)" d="M 164.7 136.35 
L 167.4 136.35 
L 167.4 133.65 
L 164.7 133.65 
z
"/>
   </g>
   <g id="patch_155">
    <path clip-path="url(#p1b516c751c)" d="M 167.4 147.15 
L 170.1 147.15 
L 170.1 144.45 
L 167.4 144.45 
z
"/>
   </g>
   <g id="patch_156">
    <path clip-path="url(#p1b516c751c)" d="M 167.4 141.75 
L 170.1 141.75 
L 170.1 139.05 
L 167.4 139.05 
z
"/>
   </g>
   <g id="patch_157">
    <path clip-path="url(#p1b516c751c)" d="M 167.4 133.65 
L 170.1 133.65 
L 170.1 130.95 
L 167.4 130.95 
z
"/>
   </g>
   <g id="patch_158">
    <path clip-path="url(#p1b516c751c)" d="M 170.1 147.15 
L 172.8 147.15 
L 172.8 144.45 
L 170.1 144.45 
z
"/>
   </g>
   <g id="patch_159">
    <path clip-path="url(#p1b516c751c)" d="M 170.1 139.05 
L 172.8 139.05 
L 172.8 136.35 
L 170.1 136.35 
z
"/>
   </g>
   <g id="patch_160">
    <path clip-path="url(#p1b516c751c)" d="M 170.1 133.65 
L 172.8 133.65 
L 172.8 130.95 
L 170.1 130.95 
z
"/>
   </g>
   <g id="patch_161">
    <path clip-path="url(#p1b516c751c)" d="M 172.8 147.15 
L 175.5 147.15 
L 175.5 144.45 
L 172.8 144.45 
z
"/>
   </g>
   <g id="patch_162">
    <path clip-path="url(#p1b516c751c)" d="M 172.8 136.35 
L 175.5 136.35 
L 175.5 133.65 
L 172.8 133.65 
z
"/>
   </g>
   <g id="patch_163">
    <path clip-path="url(#p1b516c751c)" d="M 172.8 125.55 
L 175.5 125.55 
L 175.5 122.85 
L 172.8 122.85 
z
"/>
   </g>
   <g id="patch_164">
    <path clip-path="url(#p1b516c751c)" d="M 175.5 125.55 
L 178.2 125.55 
L 178.2 122.85 
L 175.5 122.85 
z
"/>
   </g>
   <g id="patch_165">
    <path clip-path="url(#p1b516c751c)" d="M 180.9 130.95 
L 183.6 130.95 
L 183.6 128.25 
L 180.9 128.25 
z
"/>
   </g>
   <g id="patch_166">
    <path clip-path="url(#p1b516c751c)" d="M 180.9 128.25 
L 183.6 128.25 
L 183.6 125.55 
L 180.9 125.55 
z
"/>
   </g>
   <g id="patch_167">
    <path clip-path="url(#p1b516c751c)" d="M 180.9 125.55 
L 183.6 125.55 
L 183.6 122.85 
L 180.9 122.85 
z
"/>
   </g>
   <g id="patch_168">
    <path clip-path="url(#p1b516c751c)" d="M 180.9 122.85 
L 183.6 122.85 
L 183.6 120.15 
L 180.9 120.15 
z
"/>
   </g>
   <g id="patch_169">
    <path clip-path="url(#p1b516c751c)" d="M 180.9 120.15 
L 183.6 120.15 
L 183.6 117.45 
L 180.9 117.45 
z
"/>
   </g>
   <g id="patch_170">
    <path clip-path="url(#p1b516c751c)" d="M 186.3 130.95 
L 189 130.95 
L 189 128.25 
L 186.3 128.25 
z
"/>
   </g>
   <g id="patch_171">
    <path clip-path="url(#p1b516c751c)" d="M 186.3 128.25 
L 189 128.25 
L 189 125.55 
L 186.3 125.55 
z
"/>
   </g>
   <g id="patch_172">
    <path clip-path="url(#p1b516c751c)" d="M 186.3 120.15 
L 189 120.15 
L 189 117.45 
L 186.3 117.45 
z
"/>
   </g>
   <g id="patch_173">
    <path clip-path="url(#p1b516c751c)" d="M 189 125.55 
L 191.7 125.55 
L 191.7 122.85 
L 189 122.85 
z
"/>
   </g>
   <g id="patch_174">
    <path clip-path="url(#p1b516c751c)" d="M 189 122.85 
L 191.7 122.85 
L 191.7 120.15 
L 189 120.15 
z
"/>
   </g>
   <g id="patch_175">
    <path clip-path="url(#p1b516c751c)" d="M 189 120.15 
L 191.7 120.15 
L 191.7 117.45 
L 189 117.45 
z
"/>
   </g>
   <g id="patch_176">
    <path clip-path="url(#p1b516c751c)" d="M 194.4 139.05 
L 197.1 139.05 
L 197.1 136.35 
L 194.4 136.35 
z
"/>
   </g>
   <g id="patch_177">
    <path clip-path="url(#p1b516c751c)" d="M 194.4 136.35 
L 197.1 136.35 
L 197.1 133.65 
L 194.4 133.65 
z
"/>
   </g>
   <g id="patch_178">
    <path clip-path="url(#p1b516c751c)" d="M 194.4 133.65 
L 197.1 133.65 
L 197.1 130.95 
L 194.4 130.95 
z
"/>
   </g>
   <g id="patch_179">
    <path clip-path="url(#p1b516c751c)" d="M 194.4 130.95 
L 197.1 130.95 
L 197.1 128.25 
L 194.4 128.25 
z
"/>
   </g>
   <g id="patch_180">
    <path clip-path="url(#p1b516c751c)" d="M 194.4 128.25 
L 197.1 128.25 
L 197.1 125.55 
L 194.4 125.55 
z
"/>
   </g>
   <g id="patch_181">
    <path clip-path="url(#p1b516c751c)" d="M 194.4 125.55 
L 197.1 125.55 
L 197.1 122.85 
L 194.4 122.85 
z
"/>
   </g>
   <g id="patch_182">
    <path clip-path="url(#p1b516c751c)" d="M 194.4 122.85 
L 197.1 122.85 
L 197.1 120.15 
L 194.4 120.15 
z
"/>
   </g>
   <g id="patch_183">
    <path clip-path="url(#p1b516c751c)" d="M 194.4 120.15 
L 197.1 120.15 
L 197.1 117.45 
L 194.4 117.45 
z
"/>
   </g>
   <g id="patch_184">
    <path clip-path="url(#p1b516c751c)" d="M 197.1 139.05 
L 199.8 139.05 
L 199.8 136.35 
L 197.1 136.35 
z
"/>
   </g>
   <g id="patch_185">
    <path clip-path="url(#p1b516c751c)" d="M 199.8 139.05 
L 202.5 139.05 
L 202.5 136.35 
L 199.8 136.35 
z
"/>
   </g>
   <g id="patch_186">
    <path clip-path="url(#p1b516c751c)" d="M 199.8 130.95 
L 202.5 130.95 
L 202.5 128.25 
L 199.8 128.25 
z
"/>
   </g>
   <g id="patch_187">
    <path clip-path="url(#p1b516c751c)" d="M 199.8 125.55 
L 202.5 125.55 
L 202.5 122.85 
L 199.8 122.85 
z
"/>
   </g>
   <g id="patch_188">
    <path clip-path="url(#p1b516c751c)" d="M 202.5 128.25 
L 205.2 128.25 
L 205.2 125.55 
L 202.5 125.55 
z
"/>
   </g>
   <g id="patch_189">
    <path clip-path="url(#p1b516c751c)" d="M 205.2 139.05 
L 207.9 139.05 
L 207.9 136.35 
L 205.2 136.35 
z
"/>
   </g>
   <g id="patch_190">
    <path clip-path="url(#p1b516c751c)" d="M 205.2 130.95 
L 207.9 130.95 
L 207.9 128.25 
L 205.2 128.25 
z
"/>
   </g>
   <g id="patch_191">
    <path clip-path="url(#p1b516c751c)" d="M 205.2 125.55 
L 207.9 125.55 
L 207.9 122.85 
L 205.2 122.85 
z
"/>
   </g>
   <g id="patch_192">
    <path clip-path="url(#p1b516c751c)" d="M 207.9 139.05 
L 210.6 139.05 
L 210.6 136.35 
L 207.9 136.35 
z
"/>
   </g>
   <g id="patch_193">
    <path clip-path="url(#p1b516c751c)" d="M 210.6 139.05 
L 213.3 139.05 
L 213.3 136.35 
L 210.6 136.35 
z
"/>
   </g>
   <g id="patch_194">
    <path clip-path="url(#p1b516c751c)" d="M 210.6 136.35 
L 213.3 136.35 
L 213.3 133.65 
L 210.6 133.65 
z
"/>
   </g>
   <g id="patch_195">
    <path clip-path="url(#p1b516c751c)" d="M 210.6 133.65 
L 213.3 133.65 
L 213.3 130.95 
L 210.6 130.95 
z
"/>
   </g>
   <g id="patch_196">
    <path clip-path="url(#p1b516c751c)" d="M 210.6 130.95 
L 213.3 130.95 
L 213.3 128.25 
L 210.6 128.25 
z
"/>
   </g>
   <g id="patch_197">
    <path clip-path="url(#p1b516c751c)" d="M 210.6 128.25 
L 213.3 128.25 
L 213.3 125.55 
L 210.6 125.55 
z
"/>
   </g>
   <g id="patch_198">
    <path clip-path="url(#p1b516c751c)" d="M 210.6 125.55 
L 213.3 125.55 
L 213.3 122.85 
L 210.6 122.85 
z
"/>
   </g>
   <g id="patch_199">
    <path clip-path="url(#p1b516c751c)" d="M 210.6 122.85 
L 213.3 122.85 
L 213.3 120.15 
L 210.6 120.15 
z
"/>
   </g>
   <g id="patch_200">
    <path clip-path="url(#p1b516c751c)" d="M 210.6 120.15 
L 213.3 120.15 
L 213.3 117.45 
L 210.6 117.45 
z
"/>
   </g>
   <g id="patch_201">
    <path clip-path="url(#p1b516c751c)" d="M 216 125.55 
L 218.7 125.55 
L 218.7 122.85 
L 216 122.85 
z
"/>
   </g>
   <g id="patch_202">
    <path clip-path="url(#p1b516c751c)" d="M 218.7 125.55 
L 221.4 125.55 
L 221.4 122.85 
L 218.7 122.85 
z
"/>
   </g>
   <g id="patch_203">
    <path clip-path="url(#p1b516c751c)" d="M 224.1 130.95 
L 226.8 130.95 
L 226.8 128.25 
L 224.1 128.25 
z
"/>
   </g>
   <g id="patch_204">
    <path clip-path="url(#p1b516c751c)" d="M 224.1 128.25 
L 226.8 128.25 
L 226.8 125.55 
L 224.1 125.55 
z
"/>
   </g>
   <g id="patch_205">
    <path clip-path="url(#p1b516c751c)" d="M 224.1 125.55 
L 226.8 125.55 
L 226.8 122.85 
L 224.1 122.85 
z
"/>
   </g>
   <g id="patch_206">
    <path clip-path="url(#p1b516c751c)" d="M 226.8 125.55 
L 229.5 125.55 
L 229.5 122.85 
L 226.8 122.85 
z
"/>
   </g>
   <g id="patch_207">
    <path clip-path="url(#p1b516c751c)" d="M 229.5 130.95 
L 232.2 130.95 
L 232.2 128.25 
L 229.5 128.25 
z
"/>
   </g>
   <g id="patch_208">
    <path clip-path="url(#p1b516c751c)" d="M 229.5 128.25 
L 232.2 128.25 
L 232.2 125.55 
L 229.5 125.55 
z
"/>
   </g>
   <g id="patch_209">
    <path clip-path="url(#p1b516c751c)" d="M 229.5 125.55 
L 232.2 125.55 
L 232.2 122.85 
L 229.5 122.85 
z
"/>
   </g>
   <g id="patch_210">
    <path clip-path="url(#p1b516c751c)" d="M 232.2 125.55 
L 234.9 125.55 
L 234.9 122.85 
L 232.2 122.85 
z
"/>
   </g>
   <g id="patch_211">
    <path clip-path="url(#p1b516c751c)" d="M 234.9 130.95 
L 237.6 130.95 
L 237.6 128.25 
L 234.9 128.25 
z
"/>
   </g>
   <g id="patch_212">
    <path clip-path="url(#p1b516c751c)" d="M 234.9 128.25 
L 237.6 128.25 
L 237.6 125.55 
L 234.9 125.55 
z
"/>
   </g>
   <g id="patch_213">
    <path clip-path="url(#p1b516c751c)" d="M 240.3 130.95 
L 243 130.95 
L 243 128.25 
L 240.3 128.25 
z
"/>
   </g>
   <g id="patch_214">
    <path clip-path="url(#p1b516c751c)" d="M 240.3 128.25 
L 243 128.25 
L 243 125.55 
L 240.3 125.55 
z
"/>
   </g>
   <g id="patch_215">
    <path clip-path="url(#p1b516c751c)" d="M 240.3 125.55 
L 243 125.55 
L 243 122.85 
L 240.3 122.85 
z
"/>
   </g>
   <g id="patch_216">
    <path clip-path="url(#p1b516c751c)" d="M 243 130.95 
L 245.7 130.95 
L 245.7 128.25 
L 243 128.25 
z
"/>
   </g>
   <g id="patch_217">
    <path clip-path="url(#p1b516c751c)" d="M 243 125.55 
L 245.7 125.55 
L 245.7 122.85 
L 243 122.85 
z
"/>
   </g>
   <g id="patch_218">
    <path clip-path="url(#p1b516c751c)" d="M 245.7 130.95 
L 248.4 130.95 
L 248.4 128.25 
L 245.7 128.25 
z
"/>
   </g>
   <g id="patch_219">
    <path clip-path="url(#p1b516c751c)" d="M 245.7 128.25 
L 248.4 128.25 
L 248.4 125.55 
L 245.7 125.55 
z
"/>
   </g>
   <g id="patch_220">
    <path clip-path="url(#p1b516c751c)" d="M 245.7 125.55 
L 248.4 125.55 
L 248.4 122.85 
L 245.7 122.85 
z
"/>
   </g>
   <g id="patch_221">
    <path clip-path="url(#p1b516c751c)" d="M 251.1 130.95 
L 253.8 130.95 
L 253.8 128.25 
L 251.1 128.25 
z
"/>
   </g>
   <g id="patch_222">
    <path clip-path="url(#p1b516c751c)" d="M 251.1 128.25 
L 253.8 128.25 
L 253.8 125.55 
L 251.1 125.55 
z
"/>
   </g>
   <g id="patch_223">
    <path clip-path="url(#p1b516c751c)" d="M 251.1 125.55 
L 253.8 125.55 
L 253.8 122.85 
L 251.1 122.85 
z
"/>
   </g>
   <g id="patch_224">
    <path clip-path="url(#p1b516c751c)" d="M 253.8 130.95 
L 256.5 130.95 
L 256.5 128.25 
L 253.8 128.25 
z
"/>
   </g>
   <g id="patch_225">
    <path clip-path="url(#p1b516c751c)" d="M 253.8 125.55 
L 256.5 125.55 
L 256.5 122.85 
L 253.8 122.85 
z
"/>
   </g>
   <g id="patch_226">
    <path clip-path="url(#p1b516c751c)" d="M 256.5 130.95 
L 259.2 130.95 
L 259.2 128.25 
L 256.5 128.25 
z
"/>
   </g>
   <g id="patch_227">
    <path clip-path="url(#p1b516c751c)" d="M 256.5 128.25 
L 259.2 128.25 
L 259.2 125.55 
L 256.5 125.55 
z
"/>
   </g>
   <g id="patch_228">
    <path clip-path="url(#p1b516c751c)" d="M 256.5 125.55 
L 259.2 125.55 
L 259.2 122.85 
L 256.5 122.85 
z
"/>
   </g>
   <g id="patch_229">
    <path clip-path="url(#p1b516c751c)" d="M 256.5 122.85 
L 259.2 122.85 
L 259.2 120.15 
L 256.5 120.15 
z
"/>
   </g>
   <g id="patch_230">
    <path clip-path="url(#p1b516c751c)" d="M 256.5 120.15 
L 259.2 120.15 
L 259.2 117.45 
L 256.5 117.45 
z
"/>
   </g>
   <g id="patch_231">
    <path clip-path="url(#p1b516c751c)" d="M 261.9 133.65 
L 264.6 133.65 
L 264.6 130.95 
L 261.9 130.95 
z
"/>
   </g>
   <g id="patch_232">
    <path clip-path="url(#p1b516c751c)" d="M 261.9 130.95 
L 264.6 130.95 
L 264.6 128.25 
L 261.9 128.25 
z
"/>
   </g>
   <g id="patch_233">
    <path clip-path="url(#p1b516c751c)" d="M 261.9 128.25 
L 264.6 128.25 
L 264.6 125.55 
L 261.9 125.55 
z
"/>
   </g>
   <g id="patch_234">
    <path clip-path="url(#p1b516c751c)" d="M 261.9 125.55 
L 264.6 125.55 
L 264.6 122.85 
L 261.9 122.85 
z
"/>
   </g>
   <g id="patch_235">
    <path clip-path="url(#p1b516c751c)" d="M 264.6 139.05 
L 267.3 139.05 
L 267.3 136.35 
L 264.6 136.35 
z
"/>
   </g>
   <g id="patch_236">
    <path clip-path="url(#p1b516c751c)" d="M 264.6 136.35 
L 267.3 136.35 
L 267.3 133.65 
L 264.6 133.65 
z
"/>
   </g>
   <g id="patch_237">
    <path clip-path="url(#p1b516c751c)" d="M 264.6 122.85 
L 267.3 122.85 
L 267.3 120.15 
L 264.6 120.15 
z
"/>
   </g>
   <g id="patch_238">
    <path clip-path="url(#p1b516c751c)" d="M 264.6 120.15 
L 267.3 120.15 
L 267.3 117.45 
L 264.6 117.45 
z
"/>
   </g>
   <g id="patch_239">
    <path clip-path="url(#p1b516c751c)" d="M 270 139.05 
L 272.7 139.05 
L 272.7 136.35 
L 270 136.35 
z
"/>
   </g>
   <g id="patch_240">
    <path clip-path="url(#p1b516c751c)" d="M 270 136.35 
L 272.7 136.35 
L 272.7 133.65 
L 270 133.65 
z
"/>
   </g>
   <g id="patch_241">
    <path clip-path="url(#p1b516c751c)" d="M 270 133.65 
L 272.7 133.65 
L 272.7 130.95 
L 270 130.95 
z
"/>
   </g>
   <g id="patch_242">
    <path clip-path="url(#p1b516c751c)" d="M 270 130.95 
L 272.7 130.95 
L 272.7 128.25 
L 270 128.25 
z
"/>
   </g>
   <g id="patch_243">
    <path clip-path="url(#p1b516c751c)" d="M 270 128.25 
L 272.7 128.25 
L 272.7 125.55 
L 270 125.55 
z
"/>
   </g>
   <g id="patch_244">
    <path clip-path="url(#p1b516c751c)" d="M 270 125.55 
L 272.7 125.55 
L 272.7 122.85 
L 270 122.85 
z
"/>
   </g>
   <g id="patch_245">
    <path clip-path="url(#p1b516c751c)" d="M 270 122.85 
L 272.7 122.85 
L 272.7 120.15 
L 270 120.15 
z
"/>
   </g>
   <g id="patch_246">
    <path clip-path="url(#p1b516c751c)" d="M 270 120.15 
L 272.7 120.15 
L 272.7 117.45 
L 270 117.45 
z
"/>
   </g>
   <g id="patch_247">
    <path clip-path="url(#p1b516c751c)" d="M 272.7 139.05 
L 275.4 139.05 
L 275.4 136.35 
L 272.7 136.35 
z
"/>
   </g>
   <g id="patch_248">
    <path clip-path="url(#p1b516c751c)" d="M 275.4 139.05 
L 278.1 139.05 
L 278.1 136.35 
L 275.4 136.35 
z
"/>
   </g>
   <g id="patch_249">
    <path clip-path="url(#p1b516c751c)" d="M 275.4 133.65 
L 278.1 133.65 
L 278.1 130.95 
L 275.4 130.95 
z
"/>
   </g>
   <g id="patch_250">
    <path clip-path="url(#p1b516c751c)" d="M 275.4 128.25 
L 278.1 128.25 
L 278.1 125.55 
L 275.4 125.55 
z
"/>
   </g>
   <g id="patch_251">
    <path clip-path="url(#p1b516c751c)" d="M 275.4 125.55 
L 278.1 125.55 
L 278.1 122.85 
L 275.4 122.85 
z
"/>
   </g>
   <g id="patch_252">
    <path clip-path="url(#p1b516c751c)" d="M 278.1 130.95 
L 280.8 130.95 
L 280.8 128.25 
L 278.1 128.25 
z
"/>
   </g>
   <g id="patch_253">
    <path clip-path="url(#p1b516c751c)" d="M 280.8 139.05 
L 283.5 139.05 
L 283.5 136.35 
L 280.8 136.35 
z
"/>
   </g>
   <g id="patch_254">
    <path clip-path="url(#p1b516c751c)" d="M 280.8 128.25 
L 283.5 128.25 
L 283.5 125.55 
L 280.8 125.55 
z
"/>
   </g>
   <g id="patch_255">
    <path clip-path="url(#p1b516c751c)" d="M 280.8 125.55 
L 283.5 125.55 
L 283.5 122.85 
L 280.8 122.85 
z
"/>
   </g>
   <g id="patch_256">
    <path clip-path="url(#p1b516c751c)" d="M 283.5 139.05 
L 286.2 139.05 
L 286.2 136.35 
L 283.5 136.35 
z
"/>
   </g>
   <g id="patch_257">
    <path clip-path="url(#p1b516c751c)" d="M 286.2 139.05 
L 288.9 139.05 
L 288.9 136.35 
L 286.2 136.35 
z
"/>
   </g>
   <g id="patch_258">
    <path clip-path="url(#p1b516c751c)" d="M 286.2 136.35 
L 288.9 136.35 
L 288.9 133.65 
L 286.2 133.65 
z
"/>
   </g>
   <g id="patch_259">
    <path clip-path="url(#p1b516c751c)" d="M 286.2 133.65 
L 288.9 133.65 
L 288.9 130.95 
L 286.2 130.95 
z
"/>
   </g>
   <g id="patch_260">
    <path clip-path="url(#p1b516c751c)" d="M 286.2 130.95 
L 288.9 130.95 
L 288.9 128.25 
L 286.2 128.25 
z
"/>
   </g>
   <g id="patch_261">
    <path clip-path="url(#p1b516c751c)" d="M 286.2 128.25 
L 288.9 128.25 
L 288.9 125.55 
L 286.2 125.55 
z
"/>
   </g>
   <g id="patch_262">
    <path clip-path="url(#p1b516c751c)" d="M 286.2 125.55 
L 288.9 125.55 
L 288.9 122.85 
L 286.2 122.85 
z
"/>
   </g>
   <g id="patch_263">
    <path clip-path="url(#p1b516c751c)" d="M 286.2 122.85 
L 288.9 122.85 
L 288.9 120.15 
L 286.2 120.15 
z
"/>
   </g>
   <g id="patch_264">
    <path clip-path="url(#p1b516c751c)" d="M 286.2 120.15 
L 288.9 120.15 
L 288.9 117.45 
L 286.2 117.45 
z
"/>
   </g>
   <g id="patch_265">
    <path clip-path="url(#p1b516c751c)" d="M 291.6 139.05 
L 294.3 139.05 
L 294.3 136.35 
L 291.6 136.35 
z
"/>
   </g>
   <g id="patch_266">
    <path clip-path="url(#p1b516c751c)" d="M 294.3 136.35 
L 297 136.35 
L 297 133.65 
L 294.3 133.65 
z
"/>
   </g>
   <g id="patch_267">
    <path clip-path="url(#p1b516c751c)" d="M 294.3 133.65 
L 297 133.65 
L 297 130.95 
L 294.3 130.95 
z
"/>
   </g>
   <g id="patch_268">
    <path clip-path="url(#p1b516c751c)" d="M 299.7 130.95 
L 302.4 130.95 
L 302.4 128.25 
L 299.7 128.25 
z
"/>
   </g>
   <g id="patch_269">
    <path clip-path="url(#p1b516c751c)" d="M 299.7 128.25 
L 302.4 128.25 
L 302.4 125.55 
L 299.7 125.55 
z
"/>
   </g>
   <g id="patch_270">
    <path clip-path="url(#p1b516c751c)" d="M 299.7 125.55 
L 302.4 125.55 
L 302.4 122.85 
L 299.7 122.85 
z
"/>
   </g>
   <g id="patch_271">
    <path clip-path="url(#p1b516c751c)" d="M 299.7 122.85 
L 302.4 122.85 
L 302.4 120.15 
L 299.7 120.15 
z
"/>
   </g>
   <g id="patch_272">
    <path clip-path="url(#p1b516c751c)" d="M 299.7 120.15 
L 302.4 120.15 
L 302.4 117.45 
L 299.7 117.45 
z
"/>
   </g>
   <g id="patch_273">
    <path clip-path="url(#p1b516c751c)" d="M 305.1 130.95 
L 307.8 130.95 
L 307.8 128.25 
L 305.1 128.25 
z
"/>
   </g>
   <g id="patch_274">
    <path clip-path="url(#p1b516c751c)" d="M 305.1 128.25 
L 307.8 128.25 
L 307.8 125.55 
L 305.1 125.55 
z
"/>
   </g>
   <g id="patch_275">
    <path clip-path="url(#p1b516c751c)" d="M 305.1 120.15 
L 307.8 120.15 
L 307.8 117.45 
L 305.1 117.45 
z
"/>
   </g>
   <g id="patch_276">
    <path clip-path="url(#p1b516c751c)" d="M 307.8 125.55 
L 310.5 125.55 
L 310.5 122.85 
L 307.8 122.85 
z
"/>
   </g>
   <g id="patch_277">
    <path clip-path="url(#p1b516c751c)" d="M 307.8 122.85 
L 310.5 122.85 
L 310.5 120.15 
L 307.8 120.15 
z
"/>
   </g>
   <g id="patch_278">
    <path clip-path="url(#p1b516c751c)" d="M 307.8 120.15 
L 310.5 120.15 
L 310.5 117.45 
L 307.8 117.45 
z
"/>
   </g>
   <g id="patch_279">
    <path clip-path="url(#p1b516c751c)" d="M 313.2 139.05 
L 315.9 139.05 
L 315.9 136.35 
L 313.2 136.35 
z
"/>
   </g>
   <g id="patch_280">
    <path clip-path="url(#p1b516c751c)" d="M 313.2 136.35 
L 315.9 136.35 
L 315.9 133.65 
L 313.2 133.65 
z
"/>
   </g>
   <g id="patch_281">
    <path clip-path="url(#p1b516c751c)" d="M 313.2 122.85 
L 315.9 122.85 
L 315.9 120.15 
L 313.2 120.15 
z
"/>
   </g>
   <g id="patch_282">
    <path clip-path="url(#p1b516c751c)" d="M 313.2 120.15 
L 315.9 120.15 
L 315.9 117.45 
L 313.2 117.45 
z
"/>
   </g>
   <g id="patch_283">
    <path clip-path="url(#p1b516c751c)" d="M 315.9 155.25 
L 318.6 155.25 
L 318.6 152.55 
L 315.9 152.55 
z
"/>
   </g>
   <g id="patch_284">
    <path clip-path="url(#p1b516c751c)" d="M 315.9 133.65 
L 318.6 133.65 
L 318.6 130.95 
L 315.9 130.95 
z
"/>
   </g>
   <g id="patch_285">
    <path clip-path="url(#p1b516c751c)" d="M 315.9 130.95 
L 318.6 130.95 
L 318.6 128.25 
L 315.9 128.25 
z
"/>
   </g>
   <g id="patch_286">
    <path clip-path="url(#p1b516c751c)" d="M 315.9 128.25 
L 318.6 128.25 
L 318.6 125.55 
L 315.9 125.55 
z
"/>
   </g>
   <g id="patch_287">
    <path clip-path="url(#p1b516c751c)" d="M 315.9 125.55 
L 318.6 125.55 
L 318.6 122.85 
L 315.9 122.85 
z
"/>
   </g>
   <g id="patch_288">
    <path clip-path="url(#p1b516c751c)" d="M 318.6 152.55 
L 321.3 152.55 
L 321.3 149.85 
L 318.6 149.85 
z
"/>
   </g>
   <g id="patch_289">
    <path clip-path="url(#p1b516c751c)" d="M 318.6 149.85 
L 321.3 149.85 
L 321.3 147.15 
L 318.6 147.15 
z
"/>
   </g>
   <g id="patch_290">
    <path clip-path="url(#p1b516c751c)" d="M 324 147.15 
L 326.7 147.15 
L 326.7 144.45 
L 324 144.45 
z
"/>
   </g>
   <g id="patch_291">
    <path clip-path="url(#p1b516c751c)" d="M 324 144.45 
L 326.7 144.45 
L 326.7 141.75 
L 324 141.75 
z
"/>
   </g>
   <g id="patch_292">
    <path clip-path="url(#p1b516c751c)" d="M 324 136.35 
L 326.7 136.35 
L 326.7 133.65 
L 324 133.65 
z
"/>
   </g>
   <g id="patch_293">
    <path clip-path="url(#p1b516c751c)" d="M 326.7 147.15 
L 329.4 147.15 
L 329.4 144.45 
L 326.7 144.45 
z
"/>
   </g>
   <g id="patch_294">
    <path clip-path="url(#p1b516c751c)" d="M 326.7 141.75 
L 329.4 141.75 
L 329.4 139.05 
L 326.7 139.05 
z
"/>
   </g>
   <g id="patch_295">
    <path clip-path="url(#p1b516c751c)" d="M 326.7 133.65 
L 329.4 133.65 
L 329.4 130.95 
L 326.7 130.95 
z
"/>
   </g>
   <g id="patch_296">
    <path clip-path="url(#p1b516c751c)" d="M 329.4 147.15 
L 332.1 147.15 
L 332.1 144.45 
L 329.4 144.45 
z
"/>
   </g>
   <g id="patch_297">
    <path clip-path="url(#p1b516c751c)" d="M 329.4 139.05 
L 332.1 139.05 
L 332.1 136.35 
L 329.4 136.35 
z
"/>
   </g>
   <g id="patch_298">
    <path clip-path="url(#p1b516c751c)" d="M 329.4 133.65 
L 332.1 133.65 
L 332.1 130.95 
L 329.4 130.95 
z
"/>
   </g>
   <g id="patch_299">
    <path clip-path="url(#p1b516c751c)" d="M 332.1 163.35 
L 334.8 163.35 
L 334.8 160.65 
L 332.1 160.65 
z
"/>
   </g>
   <g id="patch_300">
    <path clip-path="url(#p1b516c751c)" d="M 332.1 160.65 
L 334.8 160.65 
L 334.8 157.95 
L 332.1 157.95 
z
"/>
   </g>
   <g id="patch_301">
    <path clip-path="url(#p1b516c751c)" d="M 332.1 147.15 
L 334.8 147.15 
L 334.8 144.45 
L 332.1 144.45 
z
"/>
   </g>
   <g id="patch_302">
    <path clip-path="url(#p1b516c751c)" d="M 332.1 136.35 
L 334.8 136.35 
L 334.8 133.65 
L 332.1 133.65 
z
"/>
   </g>
   <g id="patch_303">
    <path clip-path="url(#p1b516c751c)" d="M 332.1 122.85 
L 334.8 122.85 
L 334.8 120.15 
L 332.1 120.15 
z
"/>
   </g>
   <g id="patch_304">
    <path clip-path="url(#p1b516c751c)" d="M 332.1 120.15 
L 334.8 120.15 
L 334.8 117.45 
L 332.1 117.45 
z
"/>
   </g>
   <g id="patch_305">
    <path clip-path="url(#p1b516c751c)" d="M 334.8 157.95 
L 337.5 157.95 
L 337.5 155.25 
L 334.8 155.25 
z
"/>
   </g>
   <g id="patch_306">
    <path clip-path="url(#p1b516c751c)" d="M 334.8 155.25 
L 337.5 155.25 
L 337.5 152.55 
L 334.8 152.55 
z
"/>
   </g>
   <g id="patch_307">
    <path clip-path="url(#p1b516c751c)" d="M 334.8 152.55 
L 337.5 152.55 
L 337.5 149.85 
L 334.8 149.85 
z
"/>
   </g>
   <g id="patch_308">
    <path clip-path="url(#p1b516c751c)" d="M 334.8 130.95 
L 337.5 130.95 
L 337.5 128.25 
L 334.8 128.25 
z
"/>
   </g>
   <g id="patch_309">
    <path clip-path="url(#p1b516c751c)" d="M 334.8 128.25 
L 337.5 128.25 
L 337.5 125.55 
L 334.8 125.55 
z
"/>
   </g>
   <g id="patch_310">
    <path clip-path="url(#p1b516c751c)" d="M 334.8 125.55 
L 337.5 125.55 
L 337.5 122.85 
L 334.8 122.85 
z
"/>
   </g>
   <g id="patch_311">
    <path clip-path="url(#p1b516c751c)" d="M 337.5 163.35 
L 340.2 163.35 
L 340.2 160.65 
L 337.5 160.65 
z
"/>
   </g>
   <g id="patch_312">
    <path clip-path="url(#p1b516c751c)" d="M 337.5 149.85 
L 340.2 149.85 
L 340.2 147.15 
L 337.5 147.15 
z
"/>
   </g>
   <g id="patch_313">
    <path clip-path="url(#p1b516c751c)" d="M 337.5 147.15 
L 340.2 147.15 
L 340.2 144.45 
L 337.5 144.45 
z
"/>
   </g>
   <g id="patch_314">
    <path clip-path="url(#p1b516c751c)" d="M 337.5 144.45 
L 340.2 144.45 
L 340.2 141.75 
L 337.5 141.75 
z
"/>
   </g>
   <g id="patch_315">
    <path clip-path="url(#p1b516c751c)" d="M 337.5 141.75 
L 340.2 141.75 
L 340.2 139.05 
L 337.5 139.05 
z
"/>
   </g>
   <g id="patch_316">
    <path clip-path="url(#p1b516c751c)" d="M 337.5 139.05 
L 340.2 139.05 
L 340.2 136.35 
L 337.5 136.35 
z
"/>
   </g>
   <g id="patch_317">
    <path clip-path="url(#p1b516c751c)" d="M 337.5 136.35 
L 340.2 136.35 
L 340.2 133.65 
L 337.5 133.65 
z
"/>
   </g>
   <g id="patch_318">
    <path clip-path="url(#p1b516c751c)" d="M 337.5 133.65 
L 340.2 133.65 
L 340.2 130.95 
L 337.5 130.95 
z
"/>
   </g>
   <g id="patch_319">
    <path clip-path="url(#p1b516c751c)" d="M 340.2 163.35 
L 342.9 163.35 
L 342.9 160.65 
L 340.2 160.65 
z
"/>
   </g>
   <g id="patch_320">
    <path clip-path="url(#p1b516c751c)" d="M 342.9 163.35 
L 345.6 163.35 
L 345.6 160.65 
L 342.9 160.65 
z
"/>
   </g>
   <g id="patch_321">
    <path clip-path="url(#p1b516c751c)" d="M 342.9 160.65 
L 345.6 160.65 
L 345.6 157.95 
L 342.9 157.95 
z
"/>
   </g>
   <g id="patch_322">
    <path clip-path="url(#p1b516c751c)" d="M 342.9 157.95 
L 345.6 157.95 
L 345.6 155.25 
L 342.9 155.25 
z
"/>
   </g>
   <g id="patch_323">
    <path clip-path="url(#p1b516c751c)" d="M 342.9 155.25 
L 345.6 155.25 
L 345.6 152.55 
L 342.9 152.55 
z
"/>
   </g>
   <g id="patch_324">
    <path clip-path="url(#p1b516c751c)" d="M 342.9 152.55 
L 345.6 152.55 
L 345.6 149.85 
L 342.9 149.85 
z
"/>
   </g>
   <g id="patch_325">
    <path clip-path="url(#p1b516c751c)" d="M 342.9 149.85 
L 345.6 149.85 
L 345.6 147.15 
L 342.9 147.15 
z
"/>
   </g>
   <g id="patch_326">
    <path clip-path="url(#p1b516c751c)" d="M 342.9 147.15 
L 345.6 147.15 
L 345.6 144.45 
L 342.9 144.45 
z
"/>
   </g>
   <g id="patch_327">
    <path clip-path="url(#p1b516c751c)" d="M 342.9 144.45 
L 345.6 144.45 
L 345.6 141.75 
L 342.9 141.75 
z
"/>
   </g>
   <g id="patch_328">
    <path clip-path="url(#p1b516c751c)" d="M 342.9 141.75 
L 345.6 141.75 
L 345.6 139.05 
L 342.9 139.05 
z
"/>
   </g>
   <g id="patch_329">
    <path clip-path="url(#p1b516c751c)" d="M 342.9 139.05 
L 345.6 139.05 
L 345.6 136.35 
L 342.9 136.35 
z
"/>
   </g>
   <g id="patch_330">
    <path clip-path="url(#p1b516c751c)" d="M 342.9 136.35 
L 345.6 136.35 
L 345.6 133.65 
L 342.9 133.65 
z
"/>
   </g>
   <g id="patch_331">
    <path clip-path="url(#p1b516c751c)" d="M 342.9 133.65 
L 345.6 133.65 
L 345.6 130.95 
L 342.9 130.95 
z
"/>
   </g>
   <g id="patch_332">
    <path clip-path="url(#p1b516c751c)" d="M 342.9 130.95 
L 345.6 130.95 
L 345.6 128.25 
L 342.9 128.25 
z
"/>
   </g>
   <g id="patch_333">
    <path clip-path="url(#p1b516c751c)" d="M 342.9 128.25 
L 345.6 128.25 
L 345.6 125.55 
L 342.9 125.55 
z
"/>
   </g>
   <g id="patch_334">
    <path clip-path="url(#p1b516c751c)" d="M 342.9 125.55 
L 345.6 125.55 
L 345.6 122.85 
L 342.9 122.85 
z
"/>
   </g>
   <g id="patch_335">
    <path clip-path="url(#p1b516c751c)" d="M 342.9 122.85 
L 345.6 122.85 
L 345.6 120.15 
L 342.9 120.15 
z
"/>
   </g>
   <g id="patch_336">
    <path clip-path="url(#p1b516c751c)" d="M 342.9 120.15 
L 345.6 120.15 
L 345.6 117.45 
L 342.9 117.45 
z
"/>
   </g>
   <g id="patch_337">
    <path d="M 54 112.05 
L 388.8 112.05 
" style="fill:none;stroke:#000000;stroke-linecap:square;stroke-linejoin:miter;"/>
   </g>
   <g id="patch_338">
    <path d="M 388.8 168.75 
L 388.8 112.05 
" style="fill:none;stroke:#000000;stroke-linecap:square;stroke-linejoin:miter;"/>
   </g>
   <g id="patch_339">
    <path d="M 54 168.75 
L 388.8 168.75 
" style="fill:none;stroke:#000000;stroke-linecap:square;stroke-linejoin:miter;"/>
   </g>
   <g id="patch_340">
    <path d="M 54 168.75 
L 54 112.05 
" style="fill:none;stroke:#000000;stroke-linecap:square;stroke-linejoin:miter;"/>
   </g>
   <g id="matplotlib.axis_1">
    <g id="xtick_1">
     <g id="line2d_1">
      <defs>
       <path d="M 0 0 
L 0 -4 
" id="mdf4270b008" style="stroke:#000000;stroke-width:0.5;"/>
      </defs>
      <g>
       <use style="stroke:#000000;stroke-width:0.5;" x="59.4" xlink:href="#mdf4270b008" y="168.75"/>
      </g>
     </g>
     <g id="line2d_2">
      <defs>
       <path d="M 0 0 
L 0 4 
" id="m51197a6c76" style="stroke:#000000;stroke-width:0.5;"/>
      </defs>
      <g>
       <use style="stroke:#000000;stroke-width:0.5;" x="59.4" xlink:href="#m51197a6c76" y="112.05"/>
      </g>
     </g>
     <g id="text_1">
      <!-- 0 -->
      <defs>
       <path d="M 31.78125 66.40625 
Q 24.171875 66.40625 20.328125 58.90625 
Q 16.5 51.421875 16.5 36.375 
Q 16.5 21.390625 20.328125 13.890625 
Q 24.171875 6.390625 31.78125 6.390625 
Q 39.453125 6.390625 43.28125 13.890625 
Q 47.125 21.390625 47.125 36.375 
Q 47.125 51.421875 43.28125 58.90625 
Q 39.453125 66.40625 31.78125 66.40625 
M 31.78125 74.21875 
Q 44.046875 74.21875 50.515625 64.515625 
Q 56.984375 54.828125 56.984375 36.375 
Q 56.984375 17.96875 50.515625 8.265625 
Q 44.046875 -1.421875 31.78125 -1.421875 
Q 19.53125 -1.421875 13.0625 8.265625 
Q 6.59375 17.96875 6.59375 36.375 
Q 6.59375 54.828125 13.0625 64.515625 
Q 19.53125 74.21875 31.78125 74.21875 
" id="BitstreamVeraSans-Roman-30"/>
      </defs>
      <g transform="translate(56.21875 180.3484375)scale(0.1 -0.1)">
       <use xlink:href="#BitstreamVeraSans-Roman-30"/>
      </g>
     </g>
    </g>
    <g id="xtick_2">
     <g id="line2d_3">
      <g>
       <use style="stroke:#000000;stroke-width:0.5;" x="329.4" xlink:href="#mdf4270b008" y="168.75"/>
      </g>
     </g>
     <g id="line2d_4">
      <g>
       <use style="stroke:#000000;stroke-width:0.5;" x="329.4" xlink:href="#m51197a6c76" y="112.05"/>
      </g>
     </g>
     <g id="text_2">
      <!-- 100 -->
      <defs>
       <path d="M 12.40625 8.296875 
L 28.515625 8.296875 
L 28.515625 63.921875 
L 10.984375 60.40625 
L 10.984375 69.390625 
L 28.421875 72.90625 
L 38.28125 72.90625 
L 38.28125 8.296875 
L 54.390625 8.296875 
L 54.390625 0 
L 12.40625 0 
z
" id="BitstreamVeraSans-Roman-31"/>
      </defs>
      <g transform="translate(319.85625 180.3484375)scale(0.1 -0.1)">
       <use xlink:href="#BitstreamVeraSans-Roman-31"/>
       <use x="63.623046875" xlink:href="#BitstreamVeraSans-Roman-30"/>
       <use x="127.24609375" xlink:href="#BitstreamVeraSans-Roman-30"/>
      </g>
     </g>
    </g>
   </g>
   <g id="matplotlib.axis_2">
    <g id="ytick_1">
     <g id="line2d_5">
      <defs>
       <path d="M 0 0 
L 4 0 
" id="m99425dd41b" style="stroke:#000000;stroke-width:0.5;"/>
      </defs>
      <g>
       <use style="stroke:#000000;stroke-width:0.5;" x="54.0" xlink:href="#m99425dd41b" y="163.35"/>
      </g>
     </g>
     <g id="line2d_6">
      <defs>
       <path d="M 0 0 
L -4 0 
" id="me347d81b0b" style="stroke:#000000;stroke-width:0.5;"/>
      </defs>
      <g>
       <use style="stroke:#000000;stroke-width:0.5;" x="388.8" xlink:href="#me347d81b0b" y="163.35"/>
      </g>
     </g>
     <g id="text_3">
      <!-- N -->
      <defs>
       <path d="M 9.8125 72.90625 
L 23.09375 72.90625 
L 55.421875 11.921875 
L 55.421875 72.90625 
L 64.984375 72.90625 
L 64.984375 0 
L 51.703125 0 
L 19.390625 60.984375 
L 19.390625 0 
L 9.8125 0 
z
" id="BitstreamVeraSans-Roman-4e"/>
      </defs>
      <g transform="translate(42.51875 166.109375)scale(0.1 -0.1)">
       <use xlink:href="#BitstreamVeraSans-Roman-4e"/>
      </g>
     </g>
    </g>
    <g id="ytick_2">
     <g id="line2d_7">
      <g>
       <use style="stroke:#000000;stroke-width:0.5;" x="54.0" xlink:href="#m99425dd41b" y="152.55"/>
      </g>
     </g>
     <g id="line2d_8">
      <g>
       <use style="stroke:#000000;stroke-width:0.5;" x="388.8" xlink:href="#me347d81b0b" y="152.55"/>
      </g>
     </g>
     <g id="text_4">
      <!-- N + 4 -->
      <defs>
       <path id="BitstreamVeraSans-Roman-20"/>
       <path d="M 46 62.703125 
L 46 35.5 
L 73.1875 35.5 
L 73.1875 27.203125 
L 46 27.203125 
L 46 0 
L 37.796875 0 
L 37.796875 27.203125 
L 10.59375 27.203125 
L 10.59375 35.5 
L 37.796875 35.5 
L 37.796875 62.703125 
z
" id="BitstreamVeraSans-Roman-2b"/>
       <path d="M 37.796875 64.3125 
L 12.890625 25.390625 
L 37.796875 25.390625 
z
M 35.203125 72.90625 
L 47.609375 72.90625 
L 47.609375 25.390625 
L 58.015625 25.390625 
L 58.015625 17.1875 
L 47.609375 17.1875 
L 47.609375 0 
L 37.796875 0 
L 37.796875 17.1875 
L 4.890625 17.1875 
L 4.890625 26.703125 
z
" id="BitstreamVeraSans-Roman-34"/>
      </defs>
      <g transform="translate(21.4203125 155.309375)scale(0.1 -0.1)">
       <use xlink:href="#BitstreamVeraSans-Roman-4e"/>
       <use x="74.8046875" xlink:href="#BitstreamVeraSans-Roman-20"/>
       <use x="106.591796875" xlink:href="#BitstreamVeraSans-Roman-2b"/>
       <use x="190.380859375" xlink:href="#BitstreamVeraSans-Roman-20"/>
       <use x="222.16796875" xlink:href="#BitstreamVeraSans-Roman-34"/>
      </g>
     </g>
    </g>
    <g id="ytick_3">
     <g id="line2d_9">
      <g>
       <use style="stroke:#000000;stroke-width:0.5;" x="54.0" xlink:href="#m99425dd41b" y="141.75"/>
      </g>
     </g>
     <g id="line2d_10">
      <g>
       <use style="stroke:#000000;stroke-width:0.5;" x="388.8" xlink:href="#me347d81b0b" y="141.75"/>
      </g>
     </g>
     <g id="text_5">
      <!-- N + 8 -->
      <defs>
       <path d="M 31.78125 34.625 
Q 24.75 34.625 20.71875 30.859375 
Q 16.703125 27.09375 16.703125 20.515625 
Q 16.703125 13.921875 20.71875 10.15625 
Q 24.75 6.390625 31.78125 6.390625 
Q 38.8125 6.390625 42.859375 10.171875 
Q 46.921875 13.96875 46.921875 20.515625 
Q 46.921875 27.09375 42.890625 30.859375 
Q 38.875 34.625 31.78125 34.625 
M 21.921875 38.8125 
Q 15.578125 40.375 12.03125 44.71875 
Q 8.5 49.078125 8.5 55.328125 
Q 8.5 64.0625 14.71875 69.140625 
Q 20.953125 74.21875 31.78125 74.21875 
Q 42.671875 74.21875 48.875 69.140625 
Q 55.078125 64.0625 55.078125 55.328125 
Q 55.078125 49.078125 51.53125 44.71875 
Q 48 40.375 41.703125 38.8125 
Q 48.828125 37.15625 52.796875 32.3125 
Q 56.78125 27.484375 56.78125 20.515625 
Q 56.78125 9.90625 50.3125 4.234375 
Q 43.84375 -1.421875 31.78125 -1.421875 
Q 19.734375 -1.421875 13.25 4.234375 
Q 6.78125 9.90625 6.78125 20.515625 
Q 6.78125 27.484375 10.78125 32.3125 
Q 14.796875 37.15625 21.921875 38.8125 
M 18.3125 54.390625 
Q 18.3125 48.734375 21.84375 45.5625 
Q 25.390625 42.390625 31.78125 42.390625 
Q 38.140625 42.390625 41.71875 45.5625 
Q 45.3125 48.734375 45.3125 54.390625 
Q 45.3125 60.0625 41.71875 63.234375 
Q 38.140625 66.40625 31.78125 66.40625 
Q 25.390625 66.40625 21.84375 63.234375 
Q 18.3125 60.0625 18.3125 54.390625 
" id="BitstreamVeraSans-Roman-38"/>
      </defs>
      <g transform="translate(21.4203125 144.509375)scale(0.1 -0.1)">
       <use xlink:href="#BitstreamVeraSans-Roman-4e"/>
       <use x="74.8046875" xlink:href="#BitstreamVeraSans-Roman-20"/>
       <use x="106.591796875" xlink:href="#BitstreamVeraSans-Roman-2b"/>
       <use x="190.380859375" xlink:href="#BitstreamVeraSans-Roman-20"/>
       <use x="222.16796875" xlink:href="#BitstreamVeraSans-Roman-38"/>
      </g>
     </g>
    </g>
    <g id="ytick_4">
     <g id="line2d_11">
      <g>
       <use style="stroke:#000000;stroke-width:0.5;" x="54.0" xlink:href="#m99425dd41b" y="130.95"/>
      </g>
     </g>
     <g id="line2d_12">
      <g>
       <use style="stroke:#000000;stroke-width:0.5;" x="388.8" xlink:href="#me347d81b0b" y="130.95"/>
      </g>
     </g>
     <g id="text_6">
      <!-- N + 12 -->
      <defs>
       <path d="M 19.1875 8.296875 
L 53.609375 8.296875 
L 53.609375 0 
L 7.328125 0 
L 7.328125 8.296875 
Q 12.9375 14.109375 22.625 23.890625 
Q 32.328125 33.6875 34.8125 36.53125 
Q 39.546875 41.84375 41.421875 45.53125 
Q 43.3125 49.21875 43.3125 52.78125 
Q 43.3125 58.59375 39.234375 62.25 
Q 35.15625 65.921875 28.609375 65.921875 
Q 23.96875 65.921875 18.8125 64.3125 
Q 13.671875 62.703125 7.8125 59.421875 
L 7.8125 69.390625 
Q 13.765625 71.78125 18.9375 73 
Q 24.125 74.21875 28.421875 74.21875 
Q 39.75 74.21875 46.484375 68.546875 
Q 53.21875 62.890625 53.21875 53.421875 
Q 53.21875 48.921875 51.53125 44.890625 
Q 49.859375 40.875 45.40625 35.40625 
Q 44.1875 33.984375 37.640625 27.21875 
Q 31.109375 20.453125 19.1875 8.296875 
" id="BitstreamVeraSans-Roman-32"/>
      </defs>
      <g transform="translate(15.0578125 133.709375)scale(0.1 -0.1)">
       <use xlink:href="#BitstreamVeraSans-Roman-4e"/>
       <use x="74.8046875" xlink:href="#BitstreamVeraSans-Roman-20"/>
       <use x="106.591796875" xlink:href="#BitstreamVeraSans-Roman-2b"/>
       <use x="190.380859375" xlink:href="#BitstreamVeraSans-Roman-20"/>
       <use x="222.16796875" xlink:href="#BitstreamVeraSans-Roman-31"/>
       <use x="285.791015625" xlink:href="#BitstreamVeraSans-Roman-32"/>
      </g>
     </g>
    </g>
    <g id="ytick_5">
     <g id="line2d_13">
      <g>
       <use style="stroke:#000000;stroke-width:0.5;" x="54.0" xlink:href="#m99425dd41b" y="120.15"/>
      </g>
     </g>
     <g id="line2d_14">
      <g>
       <use style="stroke:#000000;stroke-width:0.5;" x="388.8" xlink:href="#me347d81b0b" y="120.15"/>
      </g>
     </g>
     <g id="text_7">
      <!-- N + 16 -->
      <defs>
       <path d="M 33.015625 40.375 
Q 26.375 40.375 22.484375 35.828125 
Q 18.609375 31.296875 18.609375 23.390625 
Q 18.609375 15.53125 22.484375 10.953125 
Q 26.375 6.390625 33.015625 6.390625 
Q 39.65625 6.390625 43.53125 10.953125 
Q 47.40625 15.53125 47.40625 23.390625 
Q 47.40625 31.296875 43.53125 35.828125 
Q 39.65625 40.375 33.015625 40.375 
M 52.59375 71.296875 
L 52.59375 62.3125 
Q 48.875 64.0625 45.09375 64.984375 
Q 41.3125 65.921875 37.59375 65.921875 
Q 27.828125 65.921875 22.671875 59.328125 
Q 17.53125 52.734375 16.796875 39.40625 
Q 19.671875 43.65625 24.015625 45.921875 
Q 28.375 48.1875 33.59375 48.1875 
Q 44.578125 48.1875 50.953125 41.515625 
Q 57.328125 34.859375 57.328125 23.390625 
Q 57.328125 12.15625 50.6875 5.359375 
Q 44.046875 -1.421875 33.015625 -1.421875 
Q 20.359375 -1.421875 13.671875 8.265625 
Q 6.984375 17.96875 6.984375 36.375 
Q 6.984375 53.65625 15.1875 63.9375 
Q 23.390625 74.21875 37.203125 74.21875 
Q 40.921875 74.21875 44.703125 73.484375 
Q 48.484375 72.75 52.59375 71.296875 
" id="BitstreamVeraSans-Roman-36"/>
      </defs>
      <g transform="translate(15.0578125 122.909375)scale(0.1 -0.1)">
       <use xlink:href="#BitstreamVeraSans-Roman-4e"/>
       <use x="74.8046875" xlink:href="#BitstreamVeraSans-Roman-20"/>
       <use x="106.591796875" xlink:href="#BitstreamVeraSans-Roman-2b"/>
       <use x="190.380859375" xlink:href="#BitstreamVeraSans-Roman-20"/>
       <use x="222.16796875" xlink:href="#BitstreamVeraSans-Roman-31"/>
       <use x="285.791015625" xlink:href="#BitstreamVeraSans-Roman-36"/>
      </g>
     </g>
    </g>
   </g>
  </g>
 </g>
 <defs>
  <clipPath id="p1b516c751c">
   <rect height="56.7" width="334.8" x="54.0" y="112.05"/>
  </clipPath>
 </defs>
</svg>
